<svg width="20" height="20" viewBox="0 0 20 20" fill="none" xmlns="http://www.w3.org/2000/svg">
<path fill-rule="evenodd" clip-rule="evenodd" d="M10.0001 3.69008C8.8432 3.68998 7.70854 4.00793 6.72015 4.60918C5.73176 5.21043 4.92769 6.07185 4.39584 7.09925C3.86399 8.12665 3.62483 9.2805 3.7045 10.4347C3.78418 11.5888 4.17962 12.6988 4.84761 13.6434C4.90968 13.7309 4.94819 13.8329 4.95943 13.9396C4.97067 14.0463 4.95426 14.1541 4.91177 14.2526L4.01677 16.3217L6.63927 15.5609C6.79324 15.5161 6.95852 15.5323 7.10094 15.6059C7.94967 16.0445 8.8869 16.2846 9.84195 16.3082C10.797 16.3317 11.7449 16.1381 12.6143 15.742C13.4836 15.3458 14.2516 14.7574 14.8604 14.0212C15.4692 13.2849 15.9029 12.4201 16.1288 11.4918C16.3546 10.5635 16.3667 9.59612 16.1642 8.66249C15.9617 7.72886 15.5498 6.8534 14.9597 6.10213C14.3695 5.35087 13.6165 4.74342 12.7574 4.32559C11.8982 3.90776 10.9554 3.69046 10.0001 3.69008ZM2.44011 10.0001C2.4405 8.36173 2.97311 6.76784 3.95775 5.45838C4.94239 4.14892 6.32577 3.19476 7.89962 2.73956C9.47346 2.28435 11.1526 2.35274 12.6842 2.93442C14.2158 3.5161 15.517 4.5796 16.3919 5.96479C17.2668 7.34999 17.6681 8.98191 17.5352 10.6149C17.4024 12.2478 16.7427 13.7934 15.6554 15.019C14.5681 16.2446 13.1121 17.0838 11.5066 17.4103C9.90112 17.7368 8.23302 17.5328 6.75344 16.8292L3.09177 17.8917C2.97792 17.9247 2.85704 17.9246 2.74324 17.8915C2.62943 17.8583 2.5274 17.7935 2.44904 17.7046C2.37068 17.6157 2.31922 17.5063 2.30067 17.3892C2.28212 17.2721 2.29724 17.1522 2.34427 17.0434L3.62927 14.0701C2.85095 12.8554 2.43817 11.4427 2.44011 10.0001Z" fill="black"/>
<path opacity="0.5" fill-rule="evenodd" clip-rule="evenodd" d="M3.69044 10.0001C3.69072 8.62361 4.14111 7.28494 4.97295 6.18821C5.8048 5.09147 6.97245 4.29683 8.29791 3.92543C9.62337 3.55403 11.0339 3.62624 12.3145 4.13105C13.5951 4.63586 14.6755 5.54559 15.391 6.72153C16.1065 7.89748 16.4179 9.27514 16.2776 10.6445C16.1373 12.0138 15.5531 13.2997 14.614 14.3062C13.6749 15.3126 12.4325 15.9844 11.0761 16.219C9.71979 16.4537 8.32389 16.2384 7.10127 15.606C6.95886 15.5323 6.79357 15.5162 6.63961 15.561L4.01711 16.3218L4.91211 14.2526C4.95459 14.1541 4.97101 14.0463 4.95977 13.9396C4.94853 13.8329 4.91002 13.7309 4.84794 13.6435C4.09257 12.579 3.68796 11.3054 3.69044 10.0001ZM11.1438 12.2943C10.8338 12.4776 10.1546 12.5335 8.86377 11.2426C7.57294 9.95179 7.62877 9.27345 7.81211 8.96262C8.27877 8.91512 8.72627 8.60262 9.14127 8.18762C9.44877 7.88012 9.19961 7.13429 8.58627 6.52095C7.97211 5.90679 7.22627 5.65845 6.91961 5.96512C4.94294 7.94095 5.93294 10.5335 7.75294 12.3543C9.59794 14.1993 12.1179 15.211 14.1413 13.1876C14.4488 12.8801 14.1996 12.1343 13.5863 11.521C12.9721 10.9068 12.2263 10.6585 11.9196 10.9651C11.5038 11.3801 11.1913 11.8276 11.1446 12.2943" fill="black"/>
</svg>
