<svg width="56" height="56" viewBox="0 0 56 56" fill="none" xmlns="http://www.w3.org/2000/svg">
<path opacity="0.5" d="M51.3333 28.0001C51.3333 38.9994 51.3333 44.4991 47.915 47.9151C44.5013 51.3334 38.9993 51.3334 28 51.3334C17.0007 51.3334 11.501 51.3334 8.08266 47.9151C4.66666 44.5014 4.66666 38.9994 4.66666 28.0001C4.66666 17.0007 4.66666 11.5011 8.08266 8.08275C11.5033 4.66675 17.0007 4.66675 28 4.66675C38.9993 4.66675 44.499 4.66675 47.915 8.08275C51.3333 11.5034 51.3333 17.0007 51.3333 28.0001Z" fill="#3CE0BF"/>
<path d="M16.3333 39.0834C15.8692 39.0834 15.4241 39.2678 15.0959 39.596C14.7677 39.9242 14.5833 40.3693 14.5833 40.8334C14.5833 41.2975 14.7677 41.7427 15.0959 42.0709C15.4241 42.399 15.8692 42.5834 16.3333 42.5834H30.3333C30.7975 42.5834 31.2426 42.399 31.5708 42.0709C31.899 41.7427 32.0833 41.2975 32.0833 40.8334C32.0833 40.3693 31.899 39.9242 31.5708 39.596C31.2426 39.2678 30.7975 39.0834 30.3333 39.0834H16.3333ZM16.3333 30.9167C15.8692 30.9167 15.4241 31.1011 15.0959 31.4293C14.7677 31.7575 14.5833 32.2026 14.5833 32.6667C14.5833 33.1309 14.7677 33.576 15.0959 33.9042C15.4241 34.2324 15.8692 34.4167 16.3333 34.4167H37.3333C37.7975 34.4167 38.2426 34.2324 38.5708 33.9042C38.899 33.576 39.0833 33.1309 39.0833 32.6667C39.0833 32.2026 38.899 31.7575 38.5708 31.4293C38.2426 31.1011 37.7975 30.9167 37.3333 30.9167H16.3333ZM51.3333 11.6667C51.3333 13.5233 50.5958 15.3037 49.2831 16.6165C47.9703 17.9293 46.1899 18.6667 44.3333 18.6667C42.4768 18.6667 40.6963 17.9293 39.3836 16.6165C38.0708 15.3037 37.3333 13.5233 37.3333 11.6667C37.3333 9.81023 38.0708 8.02976 39.3836 6.717C40.6963 5.40425 42.4768 4.66675 44.3333 4.66675C46.1899 4.66675 47.9703 5.40425 49.2831 6.717C50.5958 8.02976 51.3333 9.81023 51.3333 11.6667Z" fill="#3CE0BF"/>
</svg>
