<svg width="56" height="56" viewBox="0 0 56 56" fill="none" xmlns="http://www.w3.org/2000/svg">
<path fill-rule="evenodd" clip-rule="evenodd" d="M5.93832 20.37C4.66666 22.8667 4.66666 26.1333 4.66666 32.6667C4.66666 39.2 4.66666 42.4667 5.93832 44.9633C7.05683 47.1585 8.84153 48.9432 11.0367 50.0617C13.5333 51.3333 16.8 51.3333 23.3333 51.3333H32.6667C39.2 51.3333 42.4667 51.3333 44.9633 50.0617C47.1585 48.9432 48.9432 47.1585 50.0617 44.9633C51.3333 42.4667 51.3333 39.2 51.3333 32.6667C51.3333 26.1333 51.3333 22.8667 50.0617 20.37C48.9432 18.1749 47.1585 16.3902 44.9633 15.2717C42.4667 14 39.2 14 32.6667 14H23.3333C16.8 14 13.5333 14 11.0367 15.2717C8.84153 16.3902 7.05683 18.1749 5.93832 20.37ZM35.14 29.1667C35.4494 28.8201 35.6085 28.3648 35.5822 27.901C35.556 27.4372 35.3465 27.0028 35 26.6933C34.6534 26.3839 34.1982 26.2248 33.7343 26.2511C33.2705 26.2773 32.8361 26.4868 32.5267 26.8333L25.501 34.706L23.471 32.4333C23.1607 32.0905 22.7274 31.8844 22.2657 31.86C21.804 31.8356 21.3514 31.995 21.0068 32.3032C20.6621 32.6115 20.4535 33.0436 20.4264 33.5052C20.3994 33.9667 20.5561 34.4203 20.8623 34.7667L24.1943 38.5C24.3585 38.6839 24.5596 38.831 24.7846 38.9318C25.0096 39.0325 25.2533 39.0846 25.4998 39.0846C25.7463 39.0846 25.9901 39.0325 26.215 38.9318C26.44 38.831 26.6412 38.6839 26.8053 38.5L35.14 29.1667Z" fill="#3CE0BF"/>
<path opacity="0.5" d="M28 4.6665C38.997 4.6665 44.4967 4.6665 47.915 8.0825C49.6813 9.85117 50.5353 12.1752 50.9483 15.5305V23.3332H5.04935V15.5305C5.46001 12.1752 6.31168 9.85117 8.08035 8.0825C11.4987 4.6665 16.9983 4.6665 27.9977 4.6665" fill="#3CE0BF"/>
</svg>
